<svg id="Lag_1" data-name="Lag 1" xmlns="http://www.w3.org/2000/svg" viewBox="0 0 1159.73 903.5"><defs><style>.cls-1{fill:#fff;}</style></defs><path class="cls-1" d="M590.42,931.25H251.1c-12.45,0-24.89,0-37.34,0-10,0-19.14-5.23-22-15.33a30.26,30.26,0,0,1-.81-8.41V100.88c0-5.62-.07-11.24,0-16.86A21.42,21.42,0,0,1,212.1,62.5c2.47,0,4.94,0,7.41,0H589c10.79,0,20.4,6.54,22.3,17.66.84,4.92.26,10.4.26,15.36v809c0,1.72,0,3.43,0,5.15a21.41,21.41,0,0,1-21.14,21.54c-9.64.21-9.67,15.21,0,15A36.67,36.67,0,0,0,626.56,910c0-1.44,0-2.88,0-4.32V93.94c0-8.7.42-17-3.28-25.23-6-13.41-19.44-21.14-33.88-21.21-4,0-8.1,0-12.15,0H218.6c-3,0-6-.14-9,.11A36.62,36.62,0,0,0,176,83.76c-.08,5.12,0,10.24,0,15.36V908.28c0,21.33,15.83,37.9,37.38,38,12.12,0,24.25,0,36.37,0H590.42C600.07,946.25,600.09,931.25,590.42,931.25Z" transform="translate(-171.45 -47.46)"/><path class="cls-1" d="M332.31,908h119.6c5.49,0,11,.14,16.48,0h.24a4.5,4.5,0,1,0,0-9H349c-5.49,0-11-.14-16.49,0h-.24a4.5,4.5,0,1,0,0,9Z" transform="translate(-171.45 -47.46)"/><path class="cls-1" d="M369.13,94.76h65.81a4.5,4.5,0,1,0,0-9H369.13a4.5,4.5,0,0,0,0,9Z" transform="translate(-171.45 -47.46)"/><path class="cls-1" d="M351,95l.39-.39.06-.06a6.7,6.7,0,0,0,1.76-4.24,4.46,4.46,0,0,0-.52-2.31,4.38,4.38,0,0,0-1.24-1.93l-1.21-.94a6,6,0,0,0-3-.82l-1.6.21A6,6,0,0,0,343,86.05l-.4.39,0,.06a4.38,4.38,0,0,0-1.24,1.93,5.39,5.39,0,0,0,0,4.62A4.38,4.38,0,0,0,342.54,95l1.21.94a6,6,0,0,0,3,.82l1.59-.21A6,6,0,0,0,351,95Z" transform="translate(-171.45 -47.46)"/><path class="cls-1" d="M180.9,250.08V202.29a4.5,4.5,0,0,0-9,0v47.79a4.5,4.5,0,0,0,9,0Z" transform="translate(-171.45 -47.46)"/><path class="cls-1" d="M180.45,323.1V275.31a4.5,4.5,0,0,0-9,0V323.1a4.5,4.5,0,0,0,9,0Z" transform="translate(-171.45 -47.46)"/><path class="cls-1" d="M631.66,311.19V238.28a6,6,0,1,0-12,0v72.91a6,6,0,0,0,12,0Z" transform="translate(-171.45 -47.46)"/><path class="cls-1" d="M180.85,170.65V131a4.5,4.5,0,0,0-9,0v39.65a4.5,4.5,0,0,0,9,0Z" transform="translate(-171.45 -47.46)"/><path class="cls-1" d="M658.53,510.25h619.16c15.59,0,30.12,8.82,35.81,23.34,3,7.57,2.68,14.69,2.68,22.79V885.63c0,8.67.06,16.64-3.7,24.15-6.86,13.69-20.06,21.08-35.09,21.08H658.13c-9.65,0-9.67,15,0,15h620a53.11,53.11,0,0,0,49.52-33.53c3.49-8.77,3.54-17.73,3.54-26.92V555.27c0-10.36-.55-20.19-5-29.91-8.55-18.7-27.89-30.06-48.17-30.11q-18.84,0-37.68,0H658.53c-9.65,0-9.67,15,0,15Z" transform="translate(-171.45 -47.46)"/><path class="cls-1" d="M1283.92,688.44v65.81a4.5,4.5,0,0,0,9,0V688.44a4.5,4.5,0,0,0-9,0Z" transform="translate(-171.45 -47.46)"/><path class="cls-1" d="M1283.7,670.32l.39.4.06,0a4.43,4.43,0,0,0,1.93,1.24,5.39,5.39,0,0,0,4.62,0,4.38,4.38,0,0,0,1.93-1.24l.94-1.21a6,6,0,0,0,.82-3l-.21-1.59a6,6,0,0,0-1.55-2.65l-.39-.39-.06-.06a4.38,4.38,0,0,0-1.93-1.24,6.17,6.17,0,0,0-6.55,1.24l-.94,1.21a6,6,0,0,0-.82,3l.22,1.6a5.94,5.94,0,0,0,1.54,2.64Z" transform="translate(-171.45 -47.46)"/><path class="cls-1" d="M1128.6,500.2h47.79a4.5,4.5,0,0,0,0-9H1128.6a4.5,4.5,0,0,0,0,9Z" transform="translate(-171.45 -47.46)"/><path class="cls-1" d="M1055.58,499.75h47.79a4.5,4.5,0,0,0,0-9h-47.79a4.5,4.5,0,0,0,0,9Z" transform="translate(-171.45 -47.46)"/><path class="cls-1" d="M1067.49,951h72.91a6,6,0,0,0,0-12h-72.91a6,6,0,0,0,0,12Z" transform="translate(-171.45 -47.46)"/><path class="cls-1" d="M1208,500.15h39.64a4.5,4.5,0,0,0,0-9H1208a4.5,4.5,0,0,0,0,9Z" transform="translate(-171.45 -47.46)"/><path class="cls-1" d="M953.62,404l10.85,10.85,17.3,17.3,4,4a6,6,0,1,0,8.49-8.48l-10.86-10.86-17.29-17.29-4-4a6,6,0,0,0-8.48,8.49Z" transform="translate(-171.45 -47.46)"/><path class="cls-1" d="M1018.3,395.48l-10.85,10.86-17.3,17.29-4,4a6,6,0,1,0,8.49,8.48l10.85-10.85,17.3-17.3,4-4a6,6,0,0,0-8.49-8.49Z" transform="translate(-171.45 -47.46)"/><path class="cls-1" d="M711.51,156.58q11.06,0,22.09.87,5.49.42,11,1.07l2.49.31,1.33.17c.19,0,.87.11,0,0s.12,0,.34,0q2.65.38,5.31.79a277.91,277.91,0,0,1,41.53,9.93q10,3.23,19.8,7.22l2.23.92c1,.4-1.16-.5.11,0l1.36.58c1.59.69,3.18,1.39,4.75,2.11q4.8,2.18,9.52,4.54A280.47,280.47,0,0,1,869,206.52q4.2,3,8.28,6.07l1,.78c1.09.83-.72-.57.09.07s1.35,1.05,2,1.58c1.34,1.06,2.67,2.14,4,3.22q8.05,6.63,15.6,13.84a282.8,282.8,0,0,1,27.57,30.53c.91,1.15-.56-.75.08.09l.77,1,1.66,2.19q1.53,2.05,3,4.14,3,4.18,5.84,8.46,5.75,8.65,10.83,17.73t9.52,18.56c.74,1.57,1.45,3.15,2.15,4.73.35.79.7,1.58,1,2.37.18.4.35.8.52,1.2.07.17.14.34.22.51.42,1-.39-.93-.1-.23,1.32,3.21,2.62,6.43,3.84,9.68a276.55,276.55,0,0,1,11.83,40.76q1.1,5.22,2,10.48.46,2.73.87,5.48c.12.82.24,1.64.35,2.46,0,.26.07.51.11.76.09.68-.09-.68-.09-.64.06.51.14,1,.2,1.52q1.38,10.86,1.92,21.81.25,5.38.32,10.77c0,3.14,2.73,6.15,6,6a6.09,6.09,0,0,0,6-6,292.4,292.4,0,0,0-4.08-45.17,276.57,276.57,0,0,0-10.41-41.74A287.79,287.79,0,0,0,965,299.28a277.77,277.77,0,0,0-21.88-35.73,283.91,283.91,0,0,0-59.66-61.21,279.47,279.47,0,0,0-35.26-22.89,288,288,0,0,0-39.56-17.87,277.55,277.55,0,0,0-41.29-11.52,291.08,291.08,0,0,0-44.82-5.26c-3.67-.15-7.33-.21-11-.22a6,6,0,0,0,0,12Z" transform="translate(-171.45 -47.46)"/></svg>